# xmcd
#
# Track frame offsets:
#	150
#	13275
#	28950
#	42500
#	56937
#	69475
#	88237
#	101150
#	116612
#	133500
#	146900
#	160675
#	176350
#	187900
#	201387
#	213900
#
# Disc length: 3051 seconds
#
# Revision: 1
# Processed by: cddbd v1.5.2PL0 Copyright (c) Steve Scherf et al.
# Submitted via: EasyCDDAExtractor 15.2.5.1
#
DISCID=f40be910
DTITLE=蔡琴 - 舊曲情懷
DYEAR=1992
DGENRE=Oldies
TTITLE0=願嫁漢家郎
TTITLE1=末識绮羅香
TTITLE2=魂縈舊萝
TTITLE3=奏誰诃畔
TTITLE4=神祕女郎
TTITLE5=意難忘
TTITLE6=情人山
TTITLE7=我有一段情
TTITLE8=懷念
TTITLE9=藍色的萝
TTITLE10=昨夜你對我一笑
TTITLE11=重相逢
TTITLE12=夢裡相思
TTITLE13=情人的眼淚
TTITLE14=今宵多珍重
TTITLE15=¤£¤F±¡
EXTD=
EXTT0=
EXTT1=
EXTT2=
EXTT3=
EXTT4=
EXTT5=
EXTT6=
EXTT7=
EXTT8=
EXTT9=
EXTT10=
EXTT11=
EXTT12=
EXTT13=
EXTT14=
EXTT15=
PLAYORDER=
